<svg id="svg" version="1.1" xmlns="http://www.w3.org/2000/svg" xmlns:xlink="http://www.w3.org/1999/xlink" width="400" height="400" viewBox="0, 0, 400,400"><g id="svgg"><path id="path0" d="M70.508 70.674 C 70.350 71.073,70.217 111.900,70.211 161.400 L 70.200 251.400 116.400 251.635 C 141.810 251.764,163.230 251.998,164.000 252.154 C 171.585 253.693,173.902 254.431,179.752 257.167 C 186.242 260.203,192.803 264.998,197.060 269.816 C 199.863 272.990,199.501 273.015,202.875 269.403 C 204.414 267.754,207.052 265.320,208.737 263.994 C 210.422 262.668,212.014 261.410,212.276 261.198 C 214.422 259.464,222.774 255.421,227.010 254.066 C 235.615 251.313,232.263 251.481,283.400 251.229 L 329.800 251.000 329.925 188.400 C 329.994 153.970,329.927 113.335,329.777 98.100 L 329.504 70.400 283.876 70.400 C 239.097 70.400,236.740 70.457,231.800 71.665 C 226.965 72.847,224.698 73.675,219.800 76.049 C 213.976 78.872,209.403 82.164,204.470 87.083 L 199.941 91.599 198.470 89.944 C 190.005 80.416,179.461 74.043,168.200 71.649 C 167.100 71.415,165.390 71.009,164.400 70.745 C 160.973 69.834,70.867 69.766,70.508 70.674 M296.303 122.356 C 296.378 141.935,296.282 149.460,295.954 149.856 C 295.483 150.423,235.686 150.715,234.233 150.157 C 233.571 149.903,233.213 96.120,233.869 95.464 C 234.017 95.316,248.102 95.241,265.169 95.298 L 296.200 95.400 296.303 122.356 M173.400 112.000 L 173.400 123.400 134.300 123.502 L 95.200 123.604 95.200 112.000 L 95.200 100.396 134.300 100.498 L 173.400 100.600 173.400 112.000 M173.400 161.000 L 173.400 172.600 134.400 172.600 L 95.400 172.600 95.294 161.405 C 95.235 155.248,95.275 149.982,95.382 149.703 C 95.538 149.297,103.351 149.216,134.488 149.298 L 173.400 149.400 173.400 161.000 M173.400 210.000 L 173.400 221.400 134.300 221.502 L 95.200 221.604 95.200 210.000 L 95.200 198.396 134.300 198.498 L 173.400 198.600 173.400 210.000 " stroke="none" fill="#eee2ec" fill-rule="evenodd"></path><path id="path1" d="M45.699 207.294 L 45.800 317.000 200.200 317.000 L 354.600 317.000 354.600 207.400 L 354.600 97.800 342.301 97.694 L 330.002 97.588 329.901 192.894 L 329.800 288.200 200.000 288.200 L 70.200 288.200 70.000 193.000 L 69.800 97.800 57.699 97.694 L 45.599 97.588 45.699 207.294 M95.200 112.002 L 95.200 123.604 134.300 123.502 L 173.400 123.400 173.512 112.800 C 173.574 106.970,173.526 101.795,173.405 101.300 L 173.185 100.400 134.192 100.400 L 95.200 100.400 95.200 112.002 M95.382 149.703 C 95.275 149.982,95.235 155.248,95.294 161.405 L 95.400 172.600 134.400 172.600 L 173.400 172.600 173.400 161.000 L 173.400 149.400 134.488 149.298 C 103.351 149.216,95.538 149.297,95.382 149.703 M95.200 210.000 L 95.200 221.604 134.300 221.502 L 173.400 221.400 173.400 210.000 L 173.400 198.600 134.300 198.498 L 95.200 198.396 95.200 210.000 " stroke="none" fill="#2e3e51" fill-rule="evenodd"></path><path id="path2" d="M178.300 0.274 C 176.375 0.360,174.800 0.604,174.800 0.816 C 174.800 1.027,173.551 1.200,172.024 1.200 C 170.497 1.200,169.136 1.380,169.000 1.600 C 168.864 1.820,167.773 2.000,166.576 2.000 C 165.379 2.000,164.400 2.180,164.400 2.400 C 164.400 2.620,163.536 2.800,162.480 2.800 C 161.424 2.800,160.389 2.962,160.180 3.159 C 159.827 3.492,159.016 3.648,154.500 4.253 C 153.565 4.378,152.800 4.642,152.800 4.840 C 152.800 5.038,152.080 5.200,151.200 5.200 C 150.320 5.200,149.600 5.380,149.600 5.600 C 149.600 5.820,148.981 6.000,148.224 6.000 C 147.467 6.000,146.736 6.180,146.600 6.400 C 146.464 6.620,145.823 6.800,145.176 6.800 C 144.529 6.800,144.000 6.980,144.000 7.200 C 144.000 7.420,143.370 7.600,142.600 7.600 C 141.830 7.600,141.200 7.780,141.200 8.000 C 141.200 8.220,140.785 8.400,140.279 8.400 C 139.384 8.400,131.616 10.776,129.600 11.666 C 129.050 11.908,128.150 12.284,127.600 12.500 C 127.050 12.716,126.287 13.052,125.905 13.247 C 125.523 13.441,124.938 13.600,124.605 13.600 C 124.272 13.600,124.000 13.747,124.000 13.928 C 124.000 14.108,123.100 14.500,122.000 14.800 C 120.900 15.100,120.000 15.492,120.000 15.672 C 120.000 15.853,119.640 16.000,119.200 16.000 C 118.760 16.000,118.400 16.180,118.400 16.400 C 118.400 16.620,118.040 16.800,117.600 16.800 C 117.160 16.800,116.800 16.980,116.800 17.200 C 116.800 17.420,116.350 17.600,115.800 17.600 C 115.250 17.600,114.800 17.780,114.800 18.000 C 114.800 18.220,114.547 18.400,114.238 18.400 C 113.572 18.400,110.259 20.068,110.067 20.500 C 109.993 20.665,109.588 20.800,109.167 20.800 C 108.745 20.800,108.400 20.980,108.400 21.200 C 108.400 21.420,108.055 21.600,107.633 21.600 C 107.212 21.600,106.807 21.735,106.733 21.900 C 106.660 22.065,105.745 22.633,104.700 23.163 C 103.655 23.692,102.800 24.277,102.800 24.463 C 102.800 24.648,102.535 24.800,102.212 24.800 C 101.889 24.800,101.034 25.130,100.312 25.534 C 99.590 25.938,98.106 26.766,97.013 27.375 C 94.511 28.768,91.442 30.852,91.267 31.277 C 91.193 31.455,90.828 31.600,90.455 31.600 C 90.082 31.600,89.517 31.960,89.200 32.400 C 88.883 32.840,88.343 33.200,88.000 33.200 C 87.657 33.200,87.117 33.560,86.800 34.000 C 86.483 34.440,86.020 34.800,85.771 34.800 C 85.522 34.800,84.754 35.340,84.063 36.000 C 83.372 36.660,82.575 37.200,82.292 37.200 C 82.009 37.200,81.517 37.560,81.200 38.000 C 80.883 38.440,80.420 38.800,80.171 38.800 C 79.922 38.800,79.193 39.295,78.550 39.900 C 77.908 40.505,76.666 41.533,75.791 42.186 C 74.916 42.838,73.962 43.603,73.671 43.886 C 73.381 44.168,72.980 44.400,72.780 44.400 C 72.581 44.400,71.427 45.390,70.217 46.600 C 69.007 47.810,67.856 48.800,67.658 48.800 C 67.461 48.800,65.342 50.768,62.950 53.173 C 60.557 55.579,58.364 57.784,58.076 58.073 C 57.787 58.363,55.672 60.462,53.376 62.737 C 51.079 65.012,49.200 67.027,49.200 67.214 C 49.200 67.402,48.120 68.655,46.800 70.000 C 45.480 71.345,44.400 72.602,44.400 72.794 C 44.400 72.986,44.168 73.381,43.886 73.671 C 43.603 73.962,42.838 74.916,42.186 75.791 C 41.533 76.666,40.505 77.908,39.900 78.550 C 39.295 79.193,38.800 79.922,38.800 80.171 C 38.800 80.420,38.440 80.883,38.000 81.200 C 37.560 81.517,37.200 81.962,37.199 82.188 C 37.199 82.415,36.659 83.230,36.000 84.000 C 35.341 84.770,34.801 85.585,34.801 85.812 C 34.800 86.038,34.440 86.483,34.000 86.800 C 33.560 87.117,33.200 87.657,33.200 88.000 C 33.200 88.343,32.840 88.883,32.400 89.200 C 31.960 89.517,31.600 90.082,31.600 90.455 C 31.600 90.828,31.455 91.193,31.277 91.267 C 30.852 91.442,28.768 94.511,27.375 97.013 C 26.766 98.106,25.938 99.590,25.534 100.312 C 25.130 101.034,24.800 101.806,24.800 102.029 C 24.800 102.251,24.440 102.820,24.000 103.292 C 23.560 103.764,23.200 104.387,23.200 104.675 C 23.200 104.964,23.020 105.200,22.800 105.200 C 22.580 105.200,22.400 105.560,22.400 106.000 C 22.400 106.440,22.220 106.800,22.000 106.800 C 21.780 106.800,21.600 107.160,21.600 107.600 C 21.600 108.040,21.420 108.400,21.200 108.400 C 20.980 108.400,20.800 108.745,20.800 109.167 C 20.800 109.588,20.664 109.993,20.498 110.067 C 20.332 110.140,19.593 111.460,18.856 113.000 C 18.119 114.540,17.355 116.113,17.158 116.495 C 16.961 116.877,16.800 117.462,16.800 117.795 C 16.800 118.128,16.620 118.400,16.400 118.400 C 16.180 118.400,16.000 118.760,16.000 119.200 C 16.000 119.640,15.820 120.000,15.600 120.000 C 15.380 120.000,15.200 120.349,15.200 120.776 C 15.200 121.203,15.020 121.664,14.800 121.800 C 14.580 121.936,14.400 122.487,14.400 123.024 C 14.400 123.561,14.220 124.000,14.000 124.000 C 13.780 124.000,13.600 124.272,13.600 124.605 C 13.600 124.938,13.441 125.523,13.247 125.905 C 13.052 126.287,12.668 127.140,12.393 127.800 C 12.118 128.460,11.742 129.360,11.559 129.800 C 10.677 131.908,8.400 139.463,8.400 140.279 C 8.400 140.785,8.220 141.200,8.000 141.200 C 7.780 141.200,7.600 141.830,7.600 142.600 C 7.600 143.370,7.420 144.000,7.200 144.000 C 6.980 144.000,6.800 144.529,6.800 145.176 C 6.800 145.823,6.620 146.464,6.400 146.600 C 6.180 146.736,6.000 147.467,6.000 148.224 C 6.000 148.981,5.820 149.600,5.600 149.600 C 5.380 149.600,5.200 150.320,5.200 151.200 C 5.200 152.080,5.020 152.800,4.800 152.800 C 4.580 152.800,4.400 153.599,4.400 154.576 C 4.400 155.553,4.220 156.464,4.000 156.600 C 3.780 156.736,3.600 157.557,3.600 158.424 C 3.600 159.291,3.420 160.000,3.200 160.000 C 2.980 160.000,2.800 160.889,2.800 161.976 C 2.800 163.063,2.620 164.064,2.400 164.200 C 2.180 164.336,2.000 165.416,2.000 166.600 C 2.000 167.784,1.820 168.864,1.600 169.000 C 1.380 169.136,1.200 170.482,1.200 171.990 C 1.200 173.829,1.035 174.788,0.700 174.900 C -0.032 175.144,-0.032 224.856,0.700 225.100 C 1.035 225.212,1.200 226.171,1.200 228.010 C 1.200 229.518,1.380 230.864,1.600 231.000 C 1.820 231.136,2.000 232.216,2.000 233.400 C 2.000 234.584,2.180 235.664,2.400 235.800 C 2.620 235.936,2.800 236.937,2.800 238.024 C 2.800 239.111,2.980 240.000,3.200 240.000 C 3.420 240.000,3.600 240.709,3.600 241.576 C 3.600 242.443,3.780 243.264,4.000 243.400 C 4.220 243.536,4.400 244.447,4.400 245.424 C 4.400 246.401,4.580 247.200,4.800 247.200 C 5.020 247.200,5.200 247.920,5.200 248.800 C 5.200 249.680,5.380 250.400,5.600 250.400 C 5.820 250.400,6.000 251.019,6.000 251.776 C 6.000 252.533,6.180 253.264,6.400 253.400 C 6.620 253.536,6.800 254.177,6.800 254.824 C 6.800 255.471,6.980 256.000,7.200 256.000 C 7.420 256.000,7.600 256.630,7.600 257.400 C 7.600 258.170,7.780 258.800,8.000 258.800 C 8.220 258.800,8.400 259.215,8.400 259.721 C 8.400 260.616,10.776 268.384,11.666 270.400 C 11.908 270.950,12.284 271.850,12.500 272.400 C 12.716 272.950,13.052 273.713,13.247 274.095 C 13.441 274.477,13.600 275.062,13.600 275.395 C 13.600 275.728,13.780 276.000,14.000 276.000 C 14.220 276.000,14.400 276.439,14.400 276.976 C 14.400 277.513,14.580 278.064,14.800 278.200 C 15.020 278.336,15.200 278.797,15.200 279.224 C 15.200 279.651,15.380 280.000,15.600 280.000 C 15.820 280.000,16.000 280.360,16.000 280.800 C 16.000 281.240,16.180 281.600,16.400 281.600 C 16.620 281.600,16.800 281.853,16.800 282.162 C 16.800 282.471,17.139 283.416,17.553 284.262 C 17.967 285.108,18.732 286.700,19.253 287.800 C 19.774 288.900,20.335 289.860,20.500 289.933 C 20.665 290.007,20.800 290.412,20.800 290.833 C 20.800 291.255,20.980 291.600,21.200 291.600 C 21.420 291.600,21.600 291.960,21.600 292.400 C 21.600 292.840,21.780 293.200,22.000 293.200 C 22.220 293.200,22.400 293.560,22.400 294.000 C 22.400 294.440,22.580 294.800,22.800 294.800 C 23.020 294.800,23.200 295.070,23.200 295.400 C 23.200 295.730,23.380 296.000,23.600 296.000 C 23.820 296.000,24.000 296.270,24.000 296.600 C 24.000 296.930,24.180 297.200,24.400 297.200 C 24.620 297.200,24.813 297.515,24.829 297.900 C 24.845 298.285,25.197 299.140,25.611 299.800 C 26.026 300.460,26.676 301.630,27.057 302.400 C 27.953 304.211,30.848 308.561,31.272 308.733 C 31.453 308.807,31.600 309.172,31.600 309.545 C 31.600 309.918,31.960 310.483,32.400 310.800 C 32.840 311.117,33.200 311.657,33.200 312.000 C 33.200 312.343,33.560 312.883,34.000 313.200 C 34.440 313.517,34.800 313.962,34.801 314.188 C 34.801 314.415,35.341 315.230,36.000 316.000 C 36.659 316.770,37.199 317.585,37.199 317.812 C 37.200 318.038,37.560 318.483,38.000 318.800 C 38.440 319.117,38.800 319.580,38.800 319.829 C 38.800 320.078,39.295 320.807,39.900 321.450 C 40.505 322.092,41.533 323.334,42.186 324.209 C 42.838 325.084,43.603 326.038,43.886 326.329 C 44.168 326.619,44.400 326.996,44.400 327.166 C 44.400 327.336,45.355 328.461,46.522 329.666 C 47.689 330.871,49.081 332.474,49.615 333.229 C 50.149 333.983,52.209 336.180,54.193 338.112 C 56.177 340.044,57.980 341.810,58.200 342.037 C 62.679 346.652,66.952 350.800,67.227 350.800 C 67.420 350.800,68.349 351.567,69.289 352.505 C 70.230 353.443,71.630 354.653,72.400 355.194 C 73.170 355.735,74.248 356.587,74.796 357.089 C 75.344 357.590,75.928 358.000,76.095 358.000 C 76.262 358.000,77.141 358.720,78.048 359.600 C 78.955 360.480,79.905 361.200,80.160 361.200 C 80.415 361.200,80.883 361.560,81.200 362.000 C 81.517 362.440,82.009 362.800,82.292 362.800 C 82.575 362.800,83.372 363.340,84.063 364.000 C 84.754 364.660,85.522 365.200,85.771 365.200 C 86.020 365.200,86.483 365.560,86.800 366.000 C 87.117 366.440,87.657 366.800,88.000 366.800 C 88.343 366.800,88.883 367.160,89.200 367.600 C 89.517 368.040,90.057 368.400,90.400 368.400 C 90.743 368.400,91.283 368.760,91.600 369.200 C 91.917 369.640,92.334 370.000,92.527 370.000 C 92.719 370.000,93.354 370.339,93.938 370.754 C 94.522 371.169,95.900 372.008,97.000 372.620 C 98.100 373.231,99.590 374.062,100.312 374.466 C 101.034 374.870,101.806 375.200,102.029 375.200 C 102.251 375.200,102.820 375.560,103.292 376.000 C 103.764 376.440,104.387 376.800,104.675 376.800 C 104.964 376.800,105.200 376.980,105.200 377.200 C 105.200 377.420,105.560 377.600,106.000 377.600 C 106.440 377.600,106.800 377.780,106.800 378.000 C 106.800 378.220,107.160 378.400,107.600 378.400 C 108.040 378.400,108.400 378.580,108.400 378.800 C 108.400 379.020,108.760 379.200,109.200 379.200 C 109.640 379.200,110.000 379.380,110.000 379.600 C 110.000 379.820,110.360 380.000,110.800 380.000 C 111.240 380.000,111.600 380.180,111.600 380.400 C 111.600 380.620,111.960 380.800,112.400 380.800 C 112.840 380.800,113.200 380.980,113.200 381.200 C 113.200 381.420,113.560 381.600,114.000 381.600 C 114.440 381.600,114.800 381.780,114.800 382.000 C 114.800 382.220,115.250 382.400,115.800 382.400 C 116.350 382.400,116.800 382.580,116.800 382.800 C 116.800 383.020,117.160 383.200,117.600 383.200 C 118.040 383.200,118.400 383.380,118.400 383.600 C 118.400 383.820,118.760 384.000,119.200 384.000 C 119.640 384.000,120.000 384.180,120.000 384.400 C 120.000 384.620,120.349 384.800,120.776 384.800 C 121.203 384.800,121.664 384.980,121.800 385.200 C 121.936 385.420,122.487 385.600,123.024 385.600 C 123.561 385.600,124.000 385.780,124.000 386.000 C 124.000 386.220,124.360 386.400,124.800 386.400 C 125.240 386.400,125.600 386.580,125.600 386.800 C 125.600 387.020,125.962 387.200,126.405 387.200 C 126.848 387.200,127.523 387.366,127.905 387.568 C 128.287 387.770,129.680 388.328,131.000 388.807 C 132.320 389.286,133.760 389.821,134.200 389.995 C 136.003 390.711,139.353 391.600,140.246 391.600 C 140.771 391.600,141.200 391.780,141.200 392.000 C 141.200 392.220,141.830 392.400,142.600 392.400 C 143.370 392.400,144.000 392.580,144.000 392.800 C 144.000 393.020,144.529 393.200,145.176 393.200 C 145.823 393.200,146.464 393.380,146.600 393.600 C 146.736 393.820,147.467 394.000,148.224 394.000 C 148.981 394.000,149.600 394.180,149.600 394.400 C 149.600 394.620,150.320 394.800,151.200 394.800 C 152.080 394.800,152.800 394.962,152.800 395.160 C 152.800 395.358,153.610 395.628,154.600 395.760 C 155.590 395.892,157.210 396.108,158.200 396.240 C 159.190 396.372,160.000 396.642,160.000 396.840 C 160.000 397.038,160.990 397.200,162.200 397.200 C 163.410 397.200,164.400 397.380,164.400 397.600 C 164.400 397.822,165.467 398.000,166.800 398.000 C 168.133 398.000,169.200 398.178,169.200 398.400 C 169.200 398.628,170.389 398.800,171.967 398.800 C 173.824 398.800,174.788 398.964,174.900 399.300 C 175.144 400.032,224.856 400.032,225.100 399.300 C 225.212 398.965,226.171 398.800,228.010 398.800 C 229.518 398.800,230.864 398.620,231.000 398.400 C 231.136 398.180,232.216 398.000,233.400 398.000 C 234.584 398.000,235.664 397.820,235.800 397.600 C 235.936 397.380,236.937 397.200,238.024 397.200 C 239.111 397.200,240.000 397.020,240.000 396.800 C 240.000 396.580,240.709 396.400,241.576 396.400 C 242.443 396.400,243.264 396.220,243.400 396.000 C 243.536 395.780,244.447 395.600,245.424 395.600 C 246.401 395.600,247.200 395.420,247.200 395.200 C 247.200 394.980,247.920 394.800,248.800 394.800 C 249.680 394.800,250.400 394.620,250.400 394.400 C 250.400 394.180,251.019 394.000,251.776 394.000 C 252.533 394.000,253.264 393.820,253.400 393.600 C 253.536 393.380,254.177 393.200,254.824 393.200 C 255.471 393.200,256.000 393.020,256.000 392.800 C 256.000 392.580,256.630 392.400,257.400 392.400 C 258.170 392.400,258.800 392.220,258.800 392.000 C 258.800 391.780,259.229 391.600,259.754 391.600 C 260.778 391.600,264.553 390.560,265.695 389.963 C 266.077 389.763,266.628 389.600,266.919 389.600 C 267.211 389.600,268.195 389.240,269.106 388.800 C 270.016 388.360,271.029 388.000,271.357 388.000 C 271.685 388.000,272.064 387.820,272.200 387.600 C 272.336 387.380,272.887 387.200,273.424 387.200 C 273.961 387.200,274.400 387.020,274.400 386.800 C 274.400 386.580,274.760 386.400,275.200 386.400 C 275.640 386.400,276.000 386.220,276.000 386.000 C 276.000 385.780,276.540 385.600,277.200 385.600 C 277.860 385.600,278.400 385.420,278.400 385.200 C 278.400 384.980,278.760 384.800,279.200 384.800 C 279.640 384.800,280.000 384.620,280.000 384.400 C 280.000 384.180,280.360 384.000,280.800 384.000 C 281.240 384.000,281.600 383.820,281.600 383.600 C 281.600 383.380,281.960 383.200,282.400 383.200 C 282.840 383.200,283.200 383.020,283.200 382.800 C 283.200 382.580,283.639 382.400,284.176 382.400 C 284.713 382.400,285.264 382.220,285.400 382.000 C 285.536 381.780,285.997 381.600,286.424 381.600 C 286.851 381.600,287.201 381.465,287.201 381.300 C 287.202 381.135,288.192 380.550,289.400 380.000 C 290.608 379.450,291.598 378.865,291.599 378.700 C 291.599 378.535,291.960 378.400,292.400 378.400 C 292.840 378.400,293.200 378.220,293.200 378.000 C 293.200 377.780,293.560 377.600,294.000 377.600 C 294.440 377.600,294.800 377.420,294.800 377.200 C 294.800 376.980,295.036 376.800,295.325 376.800 C 295.613 376.800,296.236 376.440,296.708 376.000 C 297.180 375.560,297.745 375.200,297.962 375.200 C 298.546 375.200,304.061 372.173,306.062 370.753 C 306.646 370.339,307.281 370.000,307.473 370.000 C 307.666 370.000,308.083 369.640,308.400 369.200 C 308.717 368.760,309.257 368.400,309.600 368.400 C 309.943 368.400,310.483 368.040,310.800 367.600 C 311.117 367.160,311.657 366.800,312.000 366.800 C 312.343 366.800,312.883 366.440,313.200 366.000 C 313.517 365.560,314.009 365.200,314.292 365.200 C 314.575 365.200,315.372 364.660,316.063 364.000 C 316.754 363.340,317.522 362.800,317.771 362.800 C 318.020 362.800,318.483 362.440,318.800 362.000 C 319.117 361.560,319.607 361.200,319.888 361.200 C 320.169 361.200,321.141 360.480,322.048 359.600 C 322.955 358.720,323.836 358.000,324.006 358.000 C 324.176 358.000,324.893 357.460,325.600 356.800 C 326.307 356.140,327.027 355.600,327.201 355.600 C 327.376 355.600,328.650 354.520,330.033 353.200 C 331.416 351.880,332.692 350.800,332.869 350.800 C 333.046 350.800,335.064 348.891,337.354 346.559 C 339.644 344.226,341.726 342.111,341.980 341.859 C 342.235 341.606,344.413 339.456,346.821 337.079 C 349.230 334.703,351.200 332.584,351.200 332.371 C 351.200 332.157,352.190 330.993,353.400 329.783 C 354.610 328.573,355.600 327.426,355.600 327.234 C 355.600 327.042,356.095 326.329,356.700 325.651 C 358.486 323.648,358.800 323.248,358.800 322.977 C 358.800 322.836,359.340 322.217,360.000 321.600 C 360.660 320.983,361.200 320.231,361.200 319.928 C 361.200 319.625,361.560 319.117,362.000 318.800 C 362.440 318.483,362.800 318.020,362.800 317.771 C 362.800 317.522,363.340 316.754,364.000 316.063 C 364.660 315.372,365.200 314.575,365.200 314.292 C 365.200 314.009,365.560 313.517,366.000 313.200 C 366.440 312.883,366.800 312.343,366.800 312.000 C 366.800 311.657,367.160 311.117,367.600 310.800 C 368.040 310.483,368.400 309.943,368.400 309.600 C 368.400 309.257,368.760 308.717,369.200 308.400 C 369.640 308.083,370.000 307.671,370.000 307.484 C 370.000 307.297,370.501 306.392,371.112 305.472 C 371.724 304.552,372.489 303.260,372.812 302.600 C 373.135 301.940,373.503 301.310,373.631 301.200 C 373.970 300.908,375.200 298.338,375.200 297.922 C 375.200 297.726,375.560 297.180,376.000 296.708 C 376.440 296.236,376.800 295.613,376.800 295.325 C 376.800 295.036,376.980 294.800,377.200 294.800 C 377.420 294.800,377.600 294.440,377.600 294.000 C 377.600 293.560,377.780 293.200,378.000 293.200 C 378.220 293.200,378.400 292.855,378.400 292.433 C 378.400 292.012,378.537 291.607,378.704 291.533 C 378.871 291.460,379.789 289.780,380.745 287.800 C 381.700 285.820,382.643 283.887,382.841 283.505 C 383.038 283.123,383.200 282.538,383.200 282.205 C 383.200 281.872,383.380 281.600,383.600 281.600 C 383.820 281.600,384.000 281.240,384.000 280.800 C 384.000 280.360,384.147 280.000,384.328 280.000 C 384.508 280.000,384.900 279.100,385.200 278.000 C 385.500 276.900,385.892 276.000,386.072 276.000 C 386.253 276.000,386.400 275.640,386.400 275.200 C 386.400 274.760,386.580 274.400,386.800 274.400 C 387.020 274.400,387.200 274.038,387.200 273.595 C 387.200 273.152,387.359 272.477,387.553 272.095 C 388.029 271.160,388.618 269.693,389.200 268.000 C 389.464 267.230,389.823 266.240,389.997 265.800 C 390.715 263.982,391.600 260.645,391.600 259.754 C 391.600 259.229,391.780 258.800,392.000 258.800 C 392.220 258.800,392.400 258.170,392.400 257.400 C 392.400 256.630,392.580 256.000,392.800 256.000 C 393.020 256.000,393.200 255.471,393.200 254.824 C 393.200 254.177,393.380 253.536,393.600 253.400 C 393.820 253.264,394.000 252.533,394.000 251.776 C 394.000 251.019,394.180 250.400,394.400 250.400 C 394.620 250.400,394.800 249.680,394.800 248.800 C 394.800 247.920,394.980 247.200,395.200 247.200 C 395.420 247.200,395.600 246.491,395.600 245.624 C 395.600 244.757,395.780 243.936,396.000 243.800 C 396.220 243.664,396.400 242.753,396.400 241.776 C 396.400 240.799,396.580 240.000,396.800 240.000 C 397.020 240.000,397.200 239.111,397.200 238.024 C 397.200 236.937,397.380 235.936,397.600 235.800 C 397.820 235.664,398.000 234.584,398.000 233.400 C 398.000 232.216,398.180 231.136,398.400 231.000 C 398.620 230.864,398.800 229.518,398.800 228.010 C 398.800 226.171,398.965 225.212,399.300 225.100 C 399.693 224.969,399.800 219.591,399.800 200.000 C 399.800 180.409,399.693 175.031,399.300 174.900 C 398.964 174.788,398.800 173.824,398.800 171.967 C 398.800 170.389,398.628 169.200,398.400 169.200 C 398.178 169.200,398.000 168.141,398.000 166.824 C 398.000 165.517,397.820 164.336,397.600 164.200 C 397.380 164.064,397.200 163.063,397.200 161.976 C 397.200 160.889,397.020 160.000,396.800 160.000 C 396.580 160.000,396.400 159.291,396.400 158.424 C 396.400 157.557,396.220 156.736,396.000 156.600 C 395.780 156.464,395.600 155.553,395.600 154.576 C 395.600 153.599,395.420 152.800,395.200 152.800 C 394.980 152.800,394.800 152.080,394.800 151.200 C 394.800 150.320,394.620 149.600,394.400 149.600 C 394.180 149.600,394.000 148.981,394.000 148.224 C 394.000 147.467,393.820 146.736,393.600 146.600 C 393.380 146.464,393.200 145.823,393.200 145.176 C 393.200 144.529,393.020 144.000,392.800 144.000 C 392.580 144.000,392.400 143.370,392.400 142.600 C 392.400 141.830,392.220 141.200,392.000 141.200 C 391.780 141.200,391.600 140.753,391.600 140.206 C 391.600 138.829,388.835 130.426,387.553 127.905 C 387.359 127.523,387.200 126.848,387.200 126.405 C 387.200 125.962,387.020 125.600,386.800 125.600 C 386.580 125.600,386.400 125.240,386.400 124.800 C 386.400 124.360,386.220 124.000,386.000 124.000 C 385.780 124.000,385.600 123.561,385.600 123.024 C 385.600 122.487,385.420 121.936,385.200 121.800 C 384.980 121.664,384.800 121.203,384.800 120.776 C 384.800 120.349,384.620 120.000,384.400 120.000 C 384.180 120.000,384.000 119.640,384.000 119.200 C 384.000 118.760,383.820 118.400,383.600 118.400 C 383.380 118.400,383.200 118.040,383.200 117.600 C 383.200 117.160,383.020 116.800,382.800 116.800 C 382.580 116.800,382.400 116.528,382.400 116.195 C 382.400 115.862,382.240 115.277,382.044 114.895 C 381.848 114.513,381.263 113.300,380.744 112.200 C 380.225 111.100,379.665 110.140,379.500 110.067 C 379.335 109.993,379.200 109.588,379.200 109.167 C 379.200 108.745,379.020 108.400,378.800 108.400 C 378.580 108.400,378.400 108.040,378.400 107.600 C 378.400 107.160,378.220 106.800,378.000 106.800 C 377.780 106.800,377.600 106.440,377.600 106.000 C 377.600 105.560,377.420 105.200,377.200 105.200 C 376.980 105.200,376.800 104.930,376.800 104.600 C 376.800 104.270,376.620 104.000,376.400 104.000 C 376.180 104.000,376.000 103.730,376.000 103.400 C 376.000 103.070,375.820 102.800,375.600 102.800 C 375.380 102.800,375.200 102.536,375.200 102.214 C 375.200 101.892,374.720 100.767,374.134 99.714 C 373.548 98.661,372.717 97.170,372.287 96.400 C 371.858 95.630,371.167 94.522,370.753 93.938 C 370.339 93.354,370.000 92.719,370.000 92.527 C 370.000 92.334,369.640 91.917,369.200 91.600 C 368.760 91.283,368.400 90.743,368.400 90.400 C 368.400 90.057,368.040 89.517,367.600 89.200 C 367.160 88.883,366.800 88.343,366.800 88.000 C 366.800 87.657,366.440 87.117,366.000 86.800 C 365.560 86.483,365.200 85.991,365.200 85.708 C 365.200 85.425,364.660 84.628,364.000 83.937 C 363.340 83.246,362.800 82.478,362.800 82.229 C 362.800 81.980,362.440 81.517,362.000 81.200 C 361.560 80.883,361.200 80.420,361.200 80.171 C 361.200 79.922,360.705 79.193,360.100 78.550 C 359.495 77.908,358.467 76.666,357.814 75.791 C 357.162 74.916,356.397 73.962,356.114 73.671 C 355.832 73.381,355.600 73.004,355.600 72.834 C 355.600 72.664,354.610 71.502,353.400 70.253 C 352.190 69.004,351.200 67.828,351.200 67.640 C 351.200 67.361,348.694 64.777,341.927 58.079 C 341.637 57.792,339.456 55.587,337.079 53.179 C 334.703 50.770,332.592 48.800,332.389 48.800 C 332.185 48.800,330.996 47.810,329.747 46.600 C 328.498 45.390,327.336 44.400,327.166 44.400 C 326.996 44.400,326.619 44.168,326.329 43.886 C 326.038 43.603,325.084 42.838,324.209 42.186 C 323.334 41.533,322.092 40.505,321.450 39.900 C 320.807 39.295,320.078 38.800,319.829 38.800 C 319.580 38.800,319.117 38.440,318.800 38.000 C 318.483 37.560,318.020 37.200,317.771 37.200 C 317.522 37.200,316.754 36.660,316.063 36.000 C 315.372 35.340,314.575 34.800,314.292 34.800 C 314.009 34.800,313.517 34.440,313.200 34.000 C 312.883 33.560,312.343 33.200,312.000 33.200 C 311.657 33.200,311.117 32.840,310.800 32.400 C 310.483 31.960,309.918 31.600,309.545 31.600 C 309.172 31.600,308.807 31.455,308.733 31.277 C 308.558 30.852,305.489 28.768,302.987 27.375 C 301.894 26.766,300.410 25.938,299.688 25.534 C 298.966 25.130,298.111 24.800,297.788 24.800 C 297.465 24.800,297.200 24.620,297.200 24.400 C 297.200 24.180,296.930 24.000,296.600 24.000 C 296.270 24.000,296.000 23.820,296.000 23.600 C 296.000 23.380,295.730 23.200,295.400 23.200 C 295.070 23.200,294.800 23.020,294.800 22.800 C 294.800 22.580,294.440 22.400,294.000 22.400 C 293.560 22.400,293.200 22.220,293.200 22.000 C 293.200 21.780,292.840 21.600,292.400 21.600 C 291.960 21.600,291.600 21.420,291.600 21.200 C 291.600 20.980,291.255 20.800,290.833 20.800 C 290.412 20.800,290.007 20.665,289.933 20.500 C 289.713 20.005,284.746 17.600,283.944 17.600 C 283.535 17.600,283.200 17.420,283.200 17.200 C 283.200 16.980,282.840 16.800,282.400 16.800 C 281.960 16.800,281.600 16.620,281.600 16.400 C 281.600 16.180,281.240 16.000,280.800 16.000 C 280.360 16.000,280.000 15.820,280.000 15.600 C 280.000 15.380,279.651 15.200,279.224 15.200 C 278.797 15.200,278.336 15.020,278.200 14.800 C 278.064 14.580,277.513 14.400,276.976 14.400 C 276.439 14.400,276.000 14.220,276.000 14.000 C 276.000 13.780,275.728 13.600,275.395 13.600 C 275.062 13.600,274.477 13.441,274.095 13.247 C 273.713 13.052,272.905 12.692,272.300 12.447 C 271.695 12.201,270.795 11.827,270.300 11.615 C 268.047 10.652,260.688 8.400,259.794 8.400 C 259.247 8.400,258.800 8.220,258.800 8.000 C 258.800 7.780,258.170 7.600,257.400 7.600 C 256.630 7.600,256.000 7.420,256.000 7.200 C 256.000 6.980,255.370 6.800,254.600 6.800 C 253.830 6.800,253.200 6.620,253.200 6.400 C 253.200 6.180,252.570 6.000,251.800 6.000 C 251.030 6.000,250.400 5.820,250.400 5.600 C 250.400 5.380,249.680 5.200,248.800 5.200 C 247.920 5.200,247.200 5.020,247.200 4.800 C 247.200 4.580,246.401 4.400,245.424 4.400 C 244.447 4.400,243.536 4.220,243.400 4.000 C 243.264 3.780,242.443 3.600,241.576 3.600 C 240.709 3.600,240.000 3.420,240.000 3.200 C 240.000 2.980,239.111 2.800,238.024 2.800 C 236.937 2.800,235.936 2.620,235.800 2.400 C 235.664 2.180,234.584 2.000,233.400 2.000 C 232.216 2.000,231.136 1.820,231.000 1.600 C 230.864 1.380,229.518 1.200,228.010 1.200 C 226.210 1.200,225.211 1.033,225.104 0.713 C 224.944 0.232,187.144 -0.123,178.300 0.274 M165.200 70.262 C 165.970 70.497,167.590 70.911,168.800 71.181 C 171.516 71.789,175.276 73.015,177.400 73.986 C 178.280 74.388,179.630 75.007,180.400 75.362 C 185.457 77.694,192.154 82.600,196.391 87.077 L 199.942 90.829 204.071 86.710 C 209.564 81.230,213.103 78.711,220.000 75.369 C 224.426 73.224,226.397 72.488,230.600 71.409 C 236.919 69.787,236.500 69.800,284.000 69.800 L 329.800 69.800 329.905 83.694 L 330.010 97.588 342.305 97.694 L 354.600 97.800 354.600 207.400 L 354.600 317.000 200.200 317.000 L 45.800 317.000 45.699 207.300 L 45.599 97.600 57.599 97.600 L 69.600 97.600 69.600 83.867 C 69.600 76.313,69.728 70.006,69.884 69.850 C 70.362 69.371,163.605 69.774,165.200 70.262 M329.696 251.500 C 329.620 251.896,320.504 251.999,285.700 251.997 C 241.565 251.995,239.385 252.055,232.600 253.454 C 229.213 254.153,224.343 255.600,223.820 256.063 C 223.611 256.249,223.116 256.400,222.720 256.400 C 222.324 256.400,222.000 256.580,222.000 256.800 C 222.000 257.020,221.747 257.200,221.438 257.200 C 220.920 257.200,217.660 258.739,217.200 259.201 C 217.090 259.311,216.460 259.671,215.800 260.001 C 215.140 260.330,214.251 260.915,213.825 261.300 C 213.398 261.685,212.828 262.000,212.558 262.000 C 212.288 262.000,212.007 262.136,211.933 262.303 C 211.860 262.470,210.990 263.215,210.000 263.960 C 209.010 264.705,206.445 267.097,204.300 269.275 L 200.400 273.234 200.400 280.620 L 200.400 288.005 135.238 287.902 C 99.399 287.846,70.160 287.935,70.262 288.100 C 70.610 288.664,329.600 288.464,329.817 287.900 C 329.922 287.625,329.960 279.210,329.900 269.200 C 329.840 259.190,329.749 251.225,329.696 251.500 " stroke="none" fill="#f49429" fill-rule="evenodd"></path><path id="path3" d="M233.869 95.464 C 233.213 96.120,233.571 149.903,234.233 150.157 C 235.686 150.715,295.483 150.423,295.954 149.856 C 296.282 149.460,296.378 141.935,296.303 122.356 L 296.200 95.400 265.169 95.298 C 248.102 95.241,234.017 95.316,233.869 95.464 " stroke="none" fill="#1484f4" fill-rule="evenodd"></path><path id="path4" d="M69.884 69.850 C 69.728 70.006,69.600 76.439,69.600 84.147 C 69.600 93.360,69.735 98.025,69.995 97.765 C 70.234 97.526,70.431 92.037,70.495 83.785 L 70.600 70.200 115.800 70.200 C 162.989 70.200,162.717 70.191,169.200 71.892 C 170.410 72.210,171.940 72.611,172.600 72.785 C 177.732 74.134,185.564 78.373,190.933 82.707 C 194.134 85.290,195.511 86.613,198.470 89.944 L 199.941 91.599 204.470 87.083 C 209.403 82.164,213.976 78.872,219.800 76.049 C 224.698 73.675,226.965 72.847,231.800 71.665 C 236.740 70.457,239.097 70.400,283.919 70.400 L 329.590 70.400 329.703 84.300 L 329.816 98.200 329.808 84.000 L 329.800 69.800 284.000 69.800 C 236.500 69.800,236.919 69.787,230.600 71.409 C 226.397 72.488,224.426 73.224,220.000 75.369 C 213.103 78.711,209.564 81.230,204.071 86.710 L 199.942 90.829 196.391 87.077 C 192.154 82.600,185.457 77.694,180.400 75.362 C 179.630 75.007,178.280 74.388,177.400 73.986 C 175.276 73.015,171.516 71.789,168.800 71.181 C 167.590 70.911,165.970 70.497,165.200 70.262 C 163.605 69.774,70.362 69.371,69.884 69.850 M283.400 251.220 C 232.269 251.482,235.613 251.314,227.010 254.066 C 222.774 255.421,214.422 259.464,212.276 261.198 C 212.014 261.410,210.422 262.668,208.737 263.994 C 207.052 265.320,204.414 267.754,202.875 269.403 C 199.501 273.015,199.863 272.990,197.060 269.816 C 192.803 264.998,186.242 260.203,179.752 257.167 C 173.903 254.431,171.553 253.683,164.000 252.155 C 163.230 251.999,141.763 251.766,116.296 251.636 L 69.992 251.400 70.096 269.600 L 70.200 287.800 135.300 287.901 L 200.400 288.002 200.400 280.618 L 200.400 273.234 204.300 269.275 C 206.445 267.097,209.010 264.705,210.000 263.960 C 210.990 263.215,211.860 262.470,211.933 262.303 C 212.007 262.136,212.288 262.000,212.558 262.000 C 212.828 262.000,213.398 261.685,213.825 261.300 C 214.251 260.915,215.140 260.330,215.800 260.001 C 216.460 259.671,217.090 259.311,217.200 259.201 C 217.660 258.739,220.920 257.200,221.438 257.200 C 221.747 257.200,222.000 257.020,222.000 256.800 C 222.000 256.580,222.324 256.400,222.720 256.400 C 223.116 256.400,223.611 256.249,223.820 256.063 C 224.343 255.600,229.213 254.153,232.600 253.454 C 239.384 252.055,241.566 251.995,285.657 251.997 C 324.274 252.000,329.542 251.928,329.745 251.400 C 329.871 251.070,329.936 250.841,329.887 250.891 C 329.839 250.940,308.920 251.088,283.400 251.220 " stroke="none" fill="#fae98c" fill-rule="evenodd"></path></g></svg>